<svg width="187" height="84" viewBox="0 0 187 84" fill="none" xmlns="http://www.w3.org/2000/svg">
<path d="M5.81376 55.0181C10.9038 53.5298 16.0712 51.5554 19.8109 46.7894C19.8288 46.7668 19.8516 46.7485 19.8776 46.736C19.9036 46.7235 19.9321 46.717 19.961 46.7171C19.9898 46.7171 20.0183 46.7237 20.0442 46.7363C20.0702 46.7489 20.0929 46.7673 20.1108 46.7899C20.1971 46.901 20.2516 47.0335 20.2685 47.1732C20.2853 47.3129 20.2638 47.4546 20.2062 47.583C18.6402 50.8513 15.5299 53.1147 12.5578 55.0419C32.5155 51.5275 53.2134 53.1403 73.3789 53.0909C80.9076 52.6711 98.568 54.219 104.899 49.5665C105.071 49.4388 105.213 49.2763 105.318 49.0897C105.423 48.9031 105.487 48.6966 105.507 48.4835C105.526 48.2704 105.501 48.0555 105.432 47.853C105.363 47.6504 105.252 47.4646 105.107 47.3077C99.1405 40.8679 61.4934 44.372 52.8393 39.774C42.4135 35.3232 46.1577 27.2809 57.5187 25.3258C73.499 22.585 89.5528 22.0014 105.616 21.9213C131.03 22.3697 156.408 23.7129 181.665 26.5719C181.706 26.5769 181.746 26.5901 181.783 26.6107C181.819 26.6313 181.851 26.6588 181.877 26.6918C181.902 26.7248 181.921 26.7625 181.932 26.8028C181.943 26.843 181.946 26.8851 181.941 26.9266C181.931 27.0124 181.888 27.091 181.822 27.1465C181.756 27.202 181.671 27.2301 181.585 27.225C150.024 24.9833 118.243 24.2419 86.6088 25.8387C77.2459 26.4893 67.7468 27.1537 58.7431 29.6426C54.1109 30.9026 48.3092 34.0203 56.5983 35.8705C68.8926 38.2189 81.8066 36.8008 94.3708 37.9561C99.6855 38.5418 105.511 38.8562 109.849 42.53C117.952 51.7868 106.172 58.421 97.5929 58.7724C69.4882 61.4543 41.6244 55.1539 13.5899 56.4627C16.1757 57.5764 18.7802 59.3973 19.9587 62.0403C20.0305 62.215 20.0406 62.409 19.9873 62.5902C19.974 62.6357 19.9503 62.6774 19.9181 62.7122C19.886 62.7469 19.8462 62.7737 19.8019 62.7904C19.7576 62.8072 19.71 62.8134 19.6629 62.8086C19.6158 62.8038 19.5704 62.7881 19.5304 62.7628C15.4777 60.2877 10.891 58.8194 6.15435 58.4809C5.73262 58.4609 5.33215 58.2899 5.02613 57.999C4.72011 57.7081 4.52897 57.3168 4.48766 56.8966C4.44632 56.4765 4.55756 56.0555 4.80104 55.7105C5.04453 55.3656 5.40401 55.1198 5.81376 55.0181Z" fill="#C8CFC6"/>
<path d="M147.519 15.5328C134.324 13.2265 120.863 12.8497 107.559 14.4145C107.5 14.4259 107.447 14.4576 107.41 14.5039C107.372 14.5503 107.351 14.6084 107.352 14.6683C107.352 14.7282 107.373 14.786 107.412 14.8318C107.451 14.8776 107.504 14.9084 107.563 14.919C120.82 16.224 134.153 16.5994 147.463 16.0428C147.529 16.0482 147.596 16.0275 147.647 15.985C147.699 15.9425 147.732 15.8816 147.739 15.8152C147.746 15.7488 147.727 15.6821 147.686 15.6294C147.645 15.5766 147.585 15.542 147.519 15.5328Z" fill="#C8CFC6"/>
<path d="M104.404 14.5876C103.631 14.1881 102.78 13.9614 101.91 13.9234C101.04 13.8854 100.173 14.0369 99.3675 14.3673C99.3065 14.3924 99.2551 14.4362 99.2206 14.4924C99.1861 14.5486 99.1703 14.6143 99.1756 14.68C99.1808 14.7457 99.2068 14.8081 99.2498 14.8581C99.2928 14.9081 99.3506 14.9432 99.4148 14.9582C101.02 15.2548 102.659 15.328 104.285 15.1758C104.353 15.1712 104.417 15.1444 104.469 15.0995C104.52 15.0547 104.555 14.9942 104.569 14.9274C104.582 14.8605 104.574 14.7911 104.544 14.7297C104.514 14.6683 104.465 14.6184 104.404 14.5876Z" fill="#C8CFC6"/>
<path d="M80.932 66.0072C81.4259 66.2965 81.9773 66.4738 82.5472 66.5266C83.1171 66.5795 83.6916 66.5066 84.2302 66.313C84.2852 66.2917 84.3331 66.2555 84.3685 66.2084C84.404 66.1614 84.4257 66.1054 84.4311 66.0467C84.4365 65.9881 84.4254 65.9291 84.3991 65.8764C84.3728 65.8236 84.3323 65.7793 84.2822 65.7483C83.7879 65.4601 83.2366 65.2834 82.6669 65.2306C82.0972 65.1778 81.5228 65.2501 80.984 65.4425C80.929 65.4638 80.8812 65.5 80.8457 65.5471C80.8102 65.5941 80.7886 65.6501 80.7832 65.7088C80.7778 65.7675 80.7888 65.8264 80.8151 65.8792C80.8414 65.9319 80.8819 65.9762 80.932 66.0072Z" fill="#C8CFC6"/>
<path d="M86.1725 66.2179C94.1217 68.0916 107.87 68.347 111.685 60.0252C111.701 59.9943 111.704 59.9586 111.696 59.9251C111.687 59.8915 111.666 59.8623 111.637 59.843C111.609 59.8236 111.574 59.8156 111.539 59.8202C111.505 59.8249 111.473 59.842 111.451 59.8683C105.566 66.1657 94.3922 65.0552 86.2038 65.9346C86.1852 65.9325 86.1664 65.9341 86.1484 65.9394C86.1304 65.9446 86.1136 65.9533 86.099 65.965C86.0844 65.9767 86.0723 65.9911 86.0632 66.0075C86.0542 66.0239 86.0485 66.0419 86.0465 66.0605C86.0444 66.0791 86.046 66.098 86.0513 66.1159C86.0565 66.1339 86.0652 66.1507 86.0769 66.1653C86.0886 66.1799 86.103 66.1921 86.1194 66.2011C86.1358 66.2101 86.1539 66.2158 86.1725 66.2179Z" fill="#C8CFC6"/>
</svg>
