<svg width="236" height="62" viewBox="0 0 236 62" fill="none" xmlns="http://www.w3.org/2000/svg">
<path d="M234.453 56.3715C229.44 54.1939 224.279 53.417 218.943 55.0388C217.898 55.345 216.976 55.9718 216.306 56.8308C215.995 57.2546 215.574 57.5846 215.087 57.7846C214.601 57.9846 214.07 58.047 213.55 57.9649C215.998 55.2467 218.24 52.3505 220.259 49.3001C220.962 48.2283 222.204 47.6272 223.332 47.1225C230.029 44.1114 233.109 38.8036 233.54 31.6585C233.693 29.2655 233.211 26.8724 233.664 24.4964C233.744 24.0938 233.721 23.7025 233.262 23.504C233.052 23.4233 232.822 23.4176 232.609 23.4879C232.396 23.5582 232.214 23.7002 232.094 23.8897C230.999 25.2109 229.598 26.1976 228.402 27.4055C224.347 31.5111 221.676 36.3198 220.928 42.1153C220.746 43.516 220.242 44.8656 220.31 46.3173C220.265 46.9575 220.014 47.566 219.595 48.0525C217.252 51.5924 214.613 54.9273 211.707 58.0216V60.0517C213.221 58.8779 214.753 58.7361 216.703 59.5981C217.191 59.8136 217.667 60.0631 218.132 60.3239C222.51 62.7623 226.786 62.4561 231.033 59.944C232.167 59.2749 233.375 58.7418 234.475 57.9989C235.394 57.4035 235.581 56.8591 234.453 56.3715ZM232.383 25.2109C233.041 34.2841 231.629 42.3762 222.113 46.4988C223.741 43.2665 226.083 40.3404 227.035 36.7451C226.018 38.0824 225.083 39.48 224.234 40.9301C223.366 42.3138 222.436 43.6634 221.478 45.0981C221.869 36.592 226.326 30.462 232.383 25.2109ZM217.316 58.5433L224.359 58.033C221.875 57.2334 219.374 57.7551 216.63 57.6304C218.699 55.691 220.883 54.795 223.434 54.9254C225.488 54.9764 227.534 55.2079 229.547 55.6172C231.044 55.8843 232.474 56.4431 233.755 57.2618C227.84 60.9137 223.02 62.4731 217.316 58.5433Z" fill="#2E4627"/>
<path d="M222.192 27.6947C220.423 28.1257 220.123 28.4716 219.754 30.5301C219.385 28.4659 219.085 28.12 217.321 27.6947C219.085 27.2637 219.385 26.9178 219.754 24.8593C220.123 26.9178 220.406 27.2637 222.192 27.6947Z" fill="#E5D1AA"/>
<path d="M28.0121 17.2584C27.8791 17.2628 27.7485 17.2943 27.6281 17.3507C27.5077 17.4072 27.4 17.4875 27.3115 17.5869C27.2231 17.6862 27.1557 17.8024 27.1136 17.9286C27.0714 18.0547 27.0553 18.1881 27.0662 18.3206C27.008 19.6994 26.9134 21.0782 26.8879 22.4606C26.74 29.5255 26.6017 36.5927 26.4732 43.6624C26.4037 44.2238 26.4147 44.7922 26.5059 45.3504C26.7219 46.2019 26.7018 47.0961 26.4477 47.937C26.1086 49.1322 25.3285 50.1542 24.265 50.7964C23.872 51.1499 23.4116 51.4201 22.9114 51.5908C22.4112 51.7614 21.8817 51.8291 21.3546 51.7896C21.3183 51.8223 21.271 51.8878 21.1873 51.9787C21.3712 52.1148 21.5807 52.2124 21.8033 52.2655C22.0258 52.3187 22.2568 52.3263 22.4824 52.288C24.9562 51.946 26.6587 50.1452 27.1171 47.6678C27.3427 46.4491 26.9643 45.3104 27.0334 44.1208C27.1608 41.8326 27.1753 39.5334 27.2117 37.2415C27.3039 31.1492 27.3863 25.0557 27.4591 18.9609C27.4591 18.4771 27.4591 18.0223 28.0812 17.9096C28.3395 18.1969 28.2558 18.5207 28.2449 18.8227C28.1103 22.6534 28.2158 26.4878 28.0739 30.3222C27.8665 36.001 28.0739 41.687 27.641 47.3659C27.4263 50.2762 25.2327 52.8046 22.5479 53.1538C18.6589 53.6595 14.8646 50.4545 14.8537 46.1144C14.8537 39.075 15.0647 32.0356 15.1738 24.9962C15.2065 22.7662 15.1738 20.5325 15.1993 18.3024C15.1993 17.8914 15.1192 17.3529 15.8977 17.5567C15.9705 18.8227 15.825 20.0705 15.8068 21.3219C15.7001 29.0246 15.6128 36.7249 15.5449 44.4228C15.5449 45.2995 15.483 46.1799 15.5449 47.0494C15.5962 47.6626 15.7752 48.2583 16.0703 48.7983C16.3653 49.3384 16.77 49.8108 17.2583 50.1852C17.2329 49.876 17.2583 49.7269 17.211 49.6505C16.3052 48.4281 16.1197 47.0093 16.1197 45.5578C16.2288 36.6667 16.3501 27.7732 16.4835 18.8772C16.549 18.2218 16.4502 17.5604 16.1961 16.9528C14.6972 16.6072 14.3298 16.8436 14.268 18.4079C14.1588 21.3183 14.1152 24.2505 14.0388 27.1717C13.9515 30.2821 14.0169 33.3962 13.9042 36.5066C13.7768 40.0791 13.6713 43.6697 13.8605 47.2349C14.0788 51.3021 18.0405 55.1292 22.6643 54.2888C25.6874 53.7395 28.5214 50.4363 28.5723 47.3513C28.6596 42.0399 28.7942 36.7322 28.8997 31.4208C28.9822 27.0213 29.0561 22.6219 29.1216 18.2224C29.1471 17.3057 28.907 17.1347 28.0121 17.2584Z" fill="#6B6B6B"/>
<path d="M21.5039 50.4908C20.8946 50.4913 20.2913 50.3709 19.729 50.1364C19.1666 49.9019 18.6564 49.5581 18.228 49.125C17.7996 48.6918 17.4614 48.1779 17.2331 47.613C17.0049 47.0481 16.891 46.4435 16.8983 45.8343L17.2257 19.3647C17.2295 19.126 17.327 18.8984 17.4972 18.731C17.6673 18.5635 17.8965 18.4697 18.1352 18.4698H25.5384C25.6595 18.4697 25.7794 18.494 25.891 18.5411C26.0026 18.5882 26.1036 18.6572 26.1881 18.744C26.2725 18.8308 26.3387 18.9337 26.3827 19.0466C26.4267 19.1595 26.4476 19.28 26.4442 19.4011L25.7348 45.9361C25.9021 48.7264 24.0286 50.4908 21.5039 50.4908Z" fill="#2E4627"/>
<path d="M25.8002 18.477C24.2359 18.859 22.6206 18.6771 21.0454 18.8408C20.8526 23.1263 20.7362 27.3536 20.4488 31.5736C20.1614 35.7936 20.2232 39.9808 19.5575 44.1462C19.6412 35.7354 19.794 27.3281 20.3906 18.9609C19.9734 18.7962 19.5183 18.7521 19.0773 18.8335C19.1425 21.3467 18.9437 23.8597 18.4843 26.3313C18.2296 23.8284 18.8008 21.3146 18.3861 18.8372C17.9895 18.5462 17.4948 18.779 17.1055 18.5389C17.5748 17.9495 23.3555 17.8768 25.8002 18.477Z" fill="white"/>
<path d="M10.55 48.308C9.67326 48.6173 8.9966 49.2466 8.21081 49.6977C4.93667 51.5567 2.75392 54.3215 1.29875 57.7266C0.873112 58.7344 0.629369 59.8075 0.109145 60.7789C0.0284363 60.8973 -0.00942687 61.0398 0.00181885 61.1826C0.0130646 61.3255 0.0727449 61.4603 0.170989 61.5647C0.264085 61.6521 0.387027 61.7008 0.514774 61.7008C0.64252 61.7008 0.765465 61.6521 0.858561 61.5647C2.15366 60.7097 3.6925 60.4078 5.07492 59.7457C9.20033 57.7266 11.6014 54.6017 11.7432 49.9015C11.7687 49.1011 11.8233 48.2244 12.2889 47.5404C12.4344 47.3258 12.5727 47.1148 12.7146 46.9002V45.3868C12.2926 46.0901 11.8487 46.7825 11.3831 47.464C11.2022 47.8268 10.9104 48.1224 10.55 48.308ZM0.974974 60.6261C2.60477 55.744 5.14404 51.604 10.0989 49.2903C9.48045 50.2034 8.9093 51.0911 8.3054 51.9423C7.65244 52.8008 7.05112 53.6973 6.50462 54.6271C8.39998 53.172 9.56776 51.0765 11.0884 49.323C10.9866 55.9659 6.51918 58.7744 0.974974 60.6152V60.6261ZM4.6129 38.7985C4.39463 39.0495 4.04175 39.2532 4.24911 39.668C4.45647 40.0827 4.8239 40.0863 5.21316 40.0863C5.83888 40.0863 6.46097 40.1445 7.08305 40.1336C9.06198 40.1391 11.0094 39.6382 12.74 38.6784V37.8599C10.3788 39.2174 7.63804 39.7642 4.93668 39.4169C7.06123 36.9359 9.72419 35.6699 12.74 35.0514V34.553C9.60069 34.9253 6.70731 36.4373 4.60926 38.8021L4.6129 38.7985ZM12.7364 36.7067V36.1246C11.8851 36.5357 11.0302 36.9068 10.1898 37.3251C11.0698 37.2906 11.9342 37.0816 12.7328 36.7103L12.7364 36.7067Z" fill="#2E4627"/>
<path d="M46.2382 4.24546C46.1944 4.12692 46.1076 4.02924 45.9949 3.97192C45.8823 3.9146 45.7522 3.90186 45.6306 3.93623C44.0591 4.10722 42.6075 3.65975 41.0323 3.7216C36.3285 3.88894 33.218 5.54056 30.6897 9.54228C30.2604 10.2262 29.8748 10.9756 29.1472 11.4049C27.0957 12.5474 25.1609 13.8877 23.3702 15.4066C23.341 15.0663 23.3989 14.7242 23.5382 14.4124C23.6776 14.1006 23.8939 13.8293 24.1669 13.624C24.7316 13.2159 25.1652 12.6521 25.4147 12.0015C26.5534 8.54913 26.3533 5.41687 25.2655 2.03724C25.0218 1.27691 24.6398 1.40788 24.2251 1.93174C23.7187 2.60722 23.2522 3.31176 22.8281 4.04174C21.1183 6.79201 20.8309 9.24397 21.995 12.2962C22.1187 12.6236 22.3006 12.951 22.3988 13.2857C22.618 13.9034 22.687 14.5643 22.6004 15.2139C22.5137 15.8635 22.2738 16.4832 21.9004 17.0219H23.3338C25.1528 14.9992 27.2882 13.4458 29.933 11.8851C30.2675 11.6525 30.6642 11.5258 31.0717 11.5213C31.984 11.5235 32.895 11.4541 33.7965 11.314C37.3844 10.9539 40.7789 9.51423 43.5316 7.18491C44.401 6.48643 45.0522 5.6497 45.9653 5.00215C46.0895 4.92526 46.184 4.80866 46.2335 4.6713C46.283 4.53394 46.2847 4.38388 46.2382 4.24546ZM23.1155 12.9183C21.1874 8.83289 22.2497 6.00622 24.6725 2.40103C25.1197 3.26602 25.4104 4.20327 25.5311 5.16949C25.7049 6.48 25.7584 7.80365 25.6912 9.12392C25.5929 10.841 24.8435 12.1252 23.683 13.3839C23.7558 11.7069 24.0468 10.0698 23.7558 8.39633C23.5375 9.90243 23.3192 11.4085 23.1155 12.9183ZM31.9047 10.8374C32.8361 10.3099 33.7492 9.77147 34.6987 9.26216C35.6482 8.75285 36.605 8.26173 37.4999 7.66147C35.1971 8.23991 33.1889 9.40404 31.0353 10.3645C34.5786 4.92939 38.9259 4.09631 45.1213 4.75113C41.1815 8.42908 37.3689 10.5682 31.9047 10.8374Z" fill="#2E4627"/>
<path d="M32.8143 2.40103C31.3227 2.76482 31.0717 3.05586 30.7589 4.79842C30.4496 3.05586 30.1986 2.76118 28.7034 2.40103C30.1986 2.03724 30.4496 1.74257 30.7589 0C31.0535 1.74257 31.3045 2.03724 32.8143 2.40103Z" fill="#E5D1AA"/>
<path d="M16.8946 10.7137C15.7596 10.9902 15.5668 11.2157 15.3303 12.5327C15.0939 11.2085 14.9047 10.9829 13.7697 10.7137C14.9047 10.4372 15.0939 10.2153 15.3303 8.89474C15.5668 10.2153 15.7596 10.4372 16.8946 10.7137Z" fill="#E5D1AA"/>
<path d="M8.50557 45.2122C7.01038 45.576 6.75937 45.8706 6.45014 47.6132C6.13728 45.8706 5.88626 45.576 4.39471 45.2122C5.88626 44.8484 6.13728 44.5574 6.45014 42.8148C6.75937 44.5574 7.01038 44.852 8.50557 45.2122Z" fill="#E5D1AA"/>
<path d="M41.7228 22.3658V15.7672H42.5219V18.7056H46.0403V15.7672H46.8394V22.3658H46.0403V19.4145H42.5219V22.3658H41.7228ZM48.7097 22.3658H47.872L50.295 15.7672H51.1198L53.5428 22.3658H52.705L50.7332 16.8111H50.6816L48.7097 22.3658ZM49.0191 19.7882H52.3957V20.4971H49.0191V19.7882ZM54.5706 22.3658V15.7672H56.8775C57.3372 15.7672 57.7163 15.8467 58.0149 16.0056C58.3135 16.1624 58.5358 16.374 58.6819 16.6403C58.8279 16.9045 58.901 17.1977 58.901 17.5199C58.901 17.8035 58.8505 18.0376 58.7495 18.2223C58.6507 18.4071 58.5197 18.5531 58.3564 18.6605C58.1953 18.7679 58.0203 18.8474 57.8312 18.899V18.9634C58.0332 18.9763 58.2361 19.0472 58.4402 19.1761C58.6443 19.3049 58.815 19.4897 58.9525 19.7302C59.09 19.9708 59.1587 20.2651 59.1587 20.6131C59.1587 20.9439 59.0835 21.2414 58.9332 21.5056C58.7828 21.7698 58.5455 21.9792 58.2211 22.1339C57.8968 22.2885 57.4747 22.3658 56.9549 22.3658H54.5706ZM55.3696 21.657H56.9549C57.4768 21.657 57.8474 21.556 58.0665 21.3541C58.2877 21.1501 58.3983 20.9031 58.3983 20.6131C58.3983 20.3897 58.3414 20.1835 58.2276 19.9944C58.1137 19.8033 57.9515 19.6508 57.741 19.5369C57.5305 19.4209 57.2814 19.3629 56.9935 19.3629H55.3696V21.657ZM55.3696 18.667H56.8518C57.0923 18.667 57.3093 18.6197 57.5026 18.5252C57.6981 18.4307 57.8527 18.2975 57.9666 18.1257C58.0826 17.9538 58.1406 17.7519 58.1406 17.5199C58.1406 17.23 58.0396 16.984 57.8377 16.7821C57.6358 16.578 57.3157 16.476 56.8775 16.476H55.3696V18.667ZM60.5361 15.7672H61.3352V17.971C61.3352 18.2975 61.3921 18.5542 61.5059 18.7411C61.6198 18.9258 61.7809 19.0568 61.9892 19.1342C62.1976 19.2094 62.4435 19.2469 62.7271 19.2469C62.9054 19.2469 63.0783 19.2405 63.2458 19.2276C63.4134 19.2126 63.5766 19.1922 63.7356 19.1664C63.8967 19.1406 64.0535 19.1095 64.206 19.073C64.3606 19.0364 64.5121 18.9956 64.6603 18.9505V19.6722C64.5164 19.7174 64.3735 19.7582 64.2318 19.7947C64.0921 19.8312 63.9461 19.8623 63.7936 19.8881C63.6432 19.9139 63.481 19.9343 63.307 19.9493C63.1331 19.9622 62.9397 19.9687 62.7271 19.9687C62.2717 19.9687 61.8797 19.9032 61.5511 19.7721C61.2246 19.6411 60.9732 19.4295 60.7971 19.1374C60.6231 18.8453 60.5361 18.4565 60.5361 17.971V15.7672ZM64.5572 15.7672H65.3562V22.3658H64.5572V15.7672ZM67.2282 22.3658H66.3905L68.8135 15.7672H69.6383L72.0612 22.3658H71.2235L69.2516 16.8111H69.2001L67.2282 22.3658ZM67.5375 19.7882H70.9142V20.4971H67.5375V19.7882ZM72.522 22.3658V21.6312H72.7153C72.9903 21.6312 73.204 21.5432 73.3565 21.367C73.509 21.1909 73.6185 20.9063 73.6851 20.5132C73.7539 20.1201 73.8 19.5992 73.8237 18.9505L73.9397 15.7672H77.9607V22.3658H77.1617V16.476H74.7001L74.597 19.1052C74.5712 19.7968 74.5078 20.3854 74.4069 20.8708C74.3059 21.3563 74.1287 21.7268 73.8752 21.9824C73.6218 22.238 73.2523 22.3658 72.7669 22.3658H72.522ZM80.1501 18.5381H82.0317C82.5043 18.5381 82.9028 18.6154 83.2271 18.7701C83.5536 18.9247 83.8006 19.1428 83.9682 19.4242C84.1379 19.7055 84.2227 20.0374 84.2227 20.4198C84.2227 20.8021 84.1379 21.1393 83.9682 21.4315C83.8006 21.7236 83.5536 21.9524 83.2271 22.1178C82.9028 22.2831 82.5043 22.3658 82.0317 22.3658H79.5572V15.7672H80.3563V21.6699H82.0317C82.3325 21.6699 82.587 21.6097 82.7954 21.4895C83.0059 21.367 83.1648 21.2102 83.2722 21.019C83.3818 20.8257 83.4365 20.6217 83.4365 20.4069C83.4365 20.0911 83.3152 19.8194 83.0724 19.5917C82.8297 19.3619 82.4828 19.2469 82.0317 19.2469H80.1501V18.5381ZM85.4849 22.3658V15.7672H86.284V18.7056H89.8024V15.7672H90.6015V22.3658H89.8024V19.4145H86.284V22.3658H85.4849ZM92.2012 15.7672H92.9874V20.961H93.0518L96.6605 15.7672H97.4337V22.3658H96.6347V17.1849H96.5702L92.9745 22.3658H92.2012V15.7672ZM99.0327 15.7672H99.8188V20.961H99.8833L103.492 15.7672H104.265V22.3658H103.466V17.1849H103.402L99.8059 22.3658H99.0327V15.7672ZM102.28 14.1175H102.989C102.989 14.4655 102.869 14.7501 102.628 14.9713C102.388 15.1926 102.061 15.3032 101.649 15.3032C101.243 15.3032 100.92 15.1926 100.679 14.9713C100.441 14.7501 100.321 14.4655 100.321 14.1175H101.03C101.03 14.2851 101.076 14.4322 101.169 14.5589C101.263 14.6857 101.423 14.749 101.649 14.749C101.874 14.749 102.036 14.6857 102.132 14.5589C102.231 14.4322 102.28 14.2851 102.28 14.1175ZM113.984 19.0665C113.984 19.7625 113.858 20.3639 113.607 20.8708C113.355 21.3778 113.011 21.7687 112.572 22.0436C112.134 22.3186 111.634 22.4561 111.071 22.4561C110.508 22.4561 110.008 22.3186 109.569 22.0436C109.131 21.7687 108.786 21.3778 108.535 20.8708C108.284 20.3639 108.158 19.7625 108.158 19.0665C108.158 18.3706 108.284 17.7691 108.535 17.2622C108.786 16.7553 109.131 16.3643 109.569 16.0894C110.008 15.8144 110.508 15.677 111.071 15.677C111.634 15.677 112.134 15.8144 112.572 16.0894C113.011 16.3643 113.355 16.7553 113.607 17.2622C113.858 17.7691 113.984 18.3706 113.984 19.0665ZM113.21 19.0665C113.21 18.4951 113.115 18.0129 112.924 17.6198C112.735 17.2267 112.478 16.9292 112.153 16.7273C111.831 16.5254 111.47 16.4245 111.071 16.4245C110.671 16.4245 110.309 16.5254 109.985 16.7273C109.663 16.9292 109.406 17.2267 109.215 17.6198C109.026 18.0129 108.931 18.4951 108.931 19.0665C108.931 19.6379 109.026 20.1201 109.215 20.5132C109.406 20.9063 109.663 21.2038 109.985 21.4057C110.309 21.6076 110.671 21.7086 111.071 21.7086C111.47 21.7086 111.831 21.6076 112.153 21.4057C112.478 21.2038 112.735 20.9063 112.924 20.5132C113.115 20.1201 113.21 19.6379 113.21 19.0665ZM115.327 22.3658V15.7672H116.126V18.7056H119.645V15.7672H120.444V22.3658H119.645V19.4145H116.126V22.3658H115.327ZM121.476 22.3658V21.6312H121.67C121.945 21.6312 122.158 21.5432 122.311 21.367C122.463 21.1909 122.573 20.9063 122.639 20.5132C122.708 20.1201 122.754 19.5992 122.778 18.9505L122.894 15.7672H126.915V22.3658H126.116V16.476H123.654L123.551 19.1052C123.526 19.7968 123.462 20.3854 123.361 20.8708C123.26 21.3563 123.083 21.7268 122.83 21.9824C122.576 22.238 122.207 22.3658 121.721 22.3658H121.476ZM128.782 22.3658H127.945L130.367 15.7672H131.192L133.615 22.3658H132.778L130.806 16.8111H130.754L128.782 22.3658ZM129.092 19.7882H132.468V20.4971H129.092V19.7882ZM134.643 15.7672H135.429V20.961H135.494L139.102 15.7672H139.876V22.3658H139.077V17.1849H139.012L135.416 22.3658H134.643V15.7672ZM137.891 14.1175H138.6C138.6 14.4655 138.479 14.7501 138.239 14.9713C137.998 15.1926 137.672 15.3032 137.259 15.3032C136.853 15.3032 136.53 15.1926 136.29 14.9713C136.051 14.7501 135.932 14.4655 135.932 14.1175H136.641C136.641 14.2851 136.687 14.4322 136.779 14.5589C136.874 14.6857 137.034 14.749 137.259 14.749C137.485 14.749 137.646 14.6857 137.743 14.5589C137.841 14.4322 137.891 14.2851 137.891 14.1175ZM141.475 22.3658V15.7672H142.274V18.7056H145.792V15.7672H146.591V22.3658H145.792V19.4145H142.274V22.3658H141.475ZM156.349 21.6055L156.259 23.9253H155.434V22.3658H154.97V21.6055H156.349ZM150.743 22.3658V15.7672H151.503V21.6312H154.905V15.7672H155.666V22.3658H150.743ZM157.556 22.3658V15.7672H161.539V16.476H158.355V18.7056H161.333V19.4145H158.355V21.657H161.59V22.3658H157.556ZM162.979 22.3658V15.7672H163.778V18.7056H167.297V15.7672H168.096V22.3658H167.297V19.4145H163.778V22.3658H162.979ZM169.334 16.476V15.7672H174.283V16.476H172.208V22.3658H171.409V16.476H169.334ZM175.517 22.3658V15.7672H177.746C178.264 15.7672 178.687 15.8606 179.016 16.0475C179.347 16.2322 179.591 16.4825 179.75 16.7982C179.909 17.114 179.989 17.4662 179.989 17.855C179.989 18.2438 179.909 18.5972 179.75 18.9151C179.594 19.233 179.351 19.4864 179.022 19.6755C178.694 19.8623 178.273 19.9558 177.759 19.9558H176.161V19.2469H177.733C178.088 19.2469 178.372 19.1857 178.587 19.0633C178.802 18.9409 178.958 18.7755 179.054 18.5671C179.153 18.3566 179.203 18.1192 179.203 17.855C179.203 17.5908 179.153 17.3546 179.054 17.1462C178.958 16.9378 178.801 16.7746 178.584 16.6564C178.367 16.5362 178.079 16.476 177.721 16.476H176.316V22.3658H175.517Z" fill="black"/>
<path d="M41.3684 43.8781V41.8933L41.7422 41.874C42.2491 41.8439 42.6508 41.6613 42.9472 41.3262C43.2479 40.9911 43.4692 40.452 43.6109 39.7088C43.757 38.9656 43.8536 37.9689 43.9009 36.7188L44.12 30.6807H52.7679V43.8781H50.4287V32.6461H46.3496L46.1434 37.4598C46.0833 38.9033 45.9243 40.0997 45.6666 41.0491C45.4131 41.9985 44.9964 42.7074 44.4164 43.1757C43.8408 43.6439 43.0396 43.8781 42.0128 43.8781H41.3684ZM57.0692 43.8781H54.5174L59.1635 30.6807H62.1149L66.7675 43.8781H64.2157L60.6908 33.3872H60.5877L57.0692 43.8781ZM57.153 38.7035H64.1125V40.6238H57.153V38.7035ZM68.5058 43.8781V30.6807H73.4548C74.4686 30.6807 75.3192 30.8697 76.0066 31.2478C76.6982 31.6258 77.2202 32.1457 77.5725 32.8072C77.9291 33.4645 78.1073 34.212 78.1073 35.0498C78.1073 35.8961 77.9291 36.6479 77.5725 37.3052C77.2159 37.9624 76.6897 38.4801 75.9937 38.8582C75.2977 39.2319 74.4407 39.4188 73.4225 39.4188H70.1425V37.4534H73.1003C73.6932 37.4534 74.1786 37.3503 74.5567 37.1441C74.9347 36.9378 75.214 36.6543 75.3944 36.2934C75.5791 35.9326 75.6715 35.518 75.6715 35.0498C75.6715 34.5815 75.5791 34.1691 75.3944 33.8125C75.214 33.4559 74.9326 33.1788 74.5502 32.9812C74.1722 32.7793 73.6846 32.6784 73.0874 32.6784H70.8965V43.8781H68.5058ZM80.1839 30.6807H82.5553V39.6766H82.6777L88.8833 30.6807H91.0292V43.8781H88.6385V34.8887H88.5289L82.304 43.8781H80.1839V30.6807ZM104.931 35.1335H102.52C102.452 34.7383 102.325 34.3882 102.14 34.0832C101.956 33.7738 101.726 33.5118 101.451 33.297C101.176 33.0822 100.862 32.9211 100.51 32.8137C100.162 32.702 99.7861 32.6461 99.3822 32.6461C98.6648 32.6461 98.029 32.8266 97.4748 33.1874C96.9206 33.544 96.4867 34.0681 96.1731 34.7598C95.8595 35.4471 95.7027 36.287 95.7027 37.2794C95.7027 38.2889 95.8595 39.1396 96.1731 39.8312C96.491 40.5186 96.9249 41.0384 97.4748 41.3907C98.029 41.7386 98.6627 41.9126 99.3758 41.9126C99.771 41.9126 100.14 41.8611 100.484 41.758C100.832 41.6506 101.144 41.4938 101.419 41.2876C101.698 41.0813 101.932 40.8279 102.121 40.5272C102.314 40.2264 102.447 39.8828 102.52 39.4961L104.931 39.509C104.84 40.1362 104.645 40.7248 104.344 41.2747C104.048 41.8246 103.659 42.31 103.178 42.731C102.697 43.1477 102.134 43.4742 101.489 43.7105C100.845 43.9425 100.13 44.0585 99.3436 44.0585C98.1837 44.0585 97.1483 43.79 96.2376 43.253C95.3268 42.716 94.6094 41.9406 94.0853 40.9267C93.5612 39.9128 93.2991 38.6971 93.2991 37.2794C93.2991 35.8574 93.5633 34.6416 94.0917 33.6321C94.6201 32.6182 95.3397 31.8428 96.2505 31.3058C97.1612 30.7688 98.1922 30.5003 99.3436 30.5003C100.078 30.5003 100.761 30.6034 101.393 30.8096C102.024 31.0158 102.587 31.3187 103.081 31.7182C103.575 32.1134 103.981 32.5989 104.299 33.1745C104.621 33.7459 104.832 34.3989 104.931 35.1335ZM107.12 30.6807H109.491V39.6766H109.614L115.819 30.6807H117.965V43.8781H115.574V34.8887H115.465L109.24 43.8781H107.12V30.6807ZM125.464 30.6807H127.804V34.9853C127.804 35.5438 127.9 35.9863 128.094 36.3128C128.291 36.6393 128.583 36.8734 128.97 37.0152C129.357 37.1569 129.838 37.2278 130.413 37.2278C130.671 37.2278 130.948 37.2192 131.245 37.2021C131.545 37.1806 131.848 37.1526 132.153 37.1183C132.458 37.0796 132.75 37.0345 133.03 36.983C133.309 36.9271 133.558 36.867 133.777 36.8025V38.7486C133.558 38.8174 133.313 38.8796 133.043 38.9355C132.772 38.9913 132.486 39.0386 132.185 39.0773C131.885 39.1159 131.584 39.146 131.283 39.1675C130.983 39.189 130.693 39.1997 130.413 39.1997C129.404 39.1997 128.527 39.0558 127.784 38.7679C127.045 38.4758 126.474 38.0204 126.07 37.4018C125.666 36.7832 125.464 35.9777 125.464 34.9853V30.6807ZM133.384 30.6807H135.736V43.8781H133.384V30.6807ZM138.646 43.8781V30.6807H147.229V32.6848H141.036V36.2677H146.784V38.2718H141.036V41.874H147.281V43.8781H138.646ZM149.668 30.6807H152.594L156.512 40.2436H156.666L160.584 30.6807H163.51V43.8781H161.216V34.8113H161.093L157.446 43.8394H155.732L152.085 34.792H151.962V43.8781H149.668V30.6807ZM166.113 43.8781V30.6807H174.697V32.6848H168.504V36.2677H174.252V38.2718H168.504V41.874H174.748V43.8781H166.113ZM177.136 43.8781V30.6807H182.085C183.099 30.6807 183.949 30.8697 184.637 31.2478C185.328 31.6258 185.85 32.1457 186.202 32.8072C186.559 33.4645 186.737 34.212 186.737 35.0498C186.737 35.8961 186.559 36.6479 186.202 37.3052C185.846 37.9624 185.32 38.4801 184.624 38.8582C183.928 39.2319 183.071 39.4188 182.052 39.4188H178.772V37.4534H181.73C182.323 37.4534 182.809 37.3503 183.187 37.1441C183.565 36.9378 183.844 36.6543 184.024 36.2934C184.209 35.9326 184.301 35.518 184.301 35.0498C184.301 34.5815 184.209 34.1691 184.024 33.8125C183.844 33.4559 183.563 33.1788 183.18 32.9812C182.802 32.7793 182.315 32.6784 181.717 32.6784H179.526V43.8781H177.136ZM188.814 30.6807H191.185V39.6766H191.308L197.513 30.6807H199.659V43.8781H197.268V34.8887H197.159L190.934 43.8781H188.814V30.6807ZM213.56 35.1335H211.15C211.082 34.7383 210.955 34.3882 210.77 34.0832C210.586 33.7738 210.356 33.5118 210.081 33.297C209.806 33.0822 209.492 32.9211 209.14 32.8137C208.792 32.702 208.416 32.6461 208.012 32.6461C207.295 32.6461 206.659 32.8266 206.105 33.1874C205.551 33.544 205.117 34.0681 204.803 34.7598C204.489 35.4471 204.333 36.287 204.333 37.2794C204.333 38.2889 204.489 39.1396 204.803 39.8312C205.121 40.5186 205.555 41.0384 206.105 41.3907C206.659 41.7386 207.293 41.9126 208.006 41.9126C208.401 41.9126 208.77 41.8611 209.114 41.758C209.462 41.6506 209.774 41.4938 210.049 41.2876C210.328 41.0813 210.562 40.8279 210.751 40.5272C210.944 40.2264 211.077 39.8828 211.15 39.4961L213.56 39.509C213.47 40.1362 213.275 40.7248 212.974 41.2747C212.678 41.8246 212.289 42.31 211.808 42.731C211.327 43.1477 210.764 43.4742 210.119 43.7105C209.475 43.9425 208.76 44.0585 207.974 44.0585C206.814 44.0585 205.778 43.79 204.868 43.253C203.957 42.716 203.239 41.9406 202.715 40.9267C202.191 39.9128 201.929 38.6971 201.929 37.2794C201.929 35.8574 202.193 34.6416 202.722 33.6321C203.25 32.6182 203.97 31.8428 204.88 31.3058C205.791 30.7688 206.822 30.5003 207.974 30.5003C208.708 30.5003 209.391 30.6034 210.023 30.8096C210.654 31.0158 211.217 31.3187 211.711 31.7182C212.205 32.1134 212.611 32.5989 212.929 33.1745C213.251 33.7459 213.462 34.3989 213.56 35.1335Z" fill="black"/>
</svg>
