<svg width="413" height="20" viewBox="0 0 413 20" fill="none" xmlns="http://www.w3.org/2000/svg">
<path d="M0.964787 1.16273C136.197 -3.89423 275.579 9.57819 411.892 3.08658C413.281 3.02062 413.407 4.37281 412.027 4.47724C276.447 14.6297 137.152 0.887899 1.11918 2.53691C-0.26074 2.56989 -0.424783 1.2177 0.964787 1.16273Z" fill="#C8CFC6"/>
<path d="M210.78 17.1747C254.832 17.0373 300.215 17.3781 344.314 17.6474C345.79 17.6474 345.954 18.4829 344.497 18.5544C300.321 20.7201 255.102 20.3628 210.693 18.0816C209.227 18.0102 209.304 17.1802 210.78 17.1747Z" fill="#C8CFC6"/>
<path d="M199.297 17.2131C193.05 17.28 186.805 17.0502 180.625 16.5261C178.299 16.3282 178.589 15.3717 180.982 15.3443C187.225 15.2776 193.468 15.5074 199.645 16.0314C201.97 16.2292 201.69 17.1857 199.297 17.2131Z" fill="#C8CFC6"/>
</svg>
